<svg width="100" height="24" viewBox="0 0 100 24" fill="none" xmlns="http://www.w3.org/2000/svg">
<path d="M76.2 8C75.1392 8 74.0961 8.27219 73.1705 8.79052C72.245 9.30886 71.4679 10.056 70.9136 10.9605C70.3594 11.865 70.0464 12.8966 70.0048 13.9566C69.9631 15.0166 70.1942 16.0695 70.6758 17.0147C71.1574 17.9599 71.8734 18.7658 72.7555 19.3551C73.6375 19.9445 74.656 20.2977 75.7136 20.3809C76.7711 20.4641 77.8323 20.2746 78.7957 19.8305C79.7591 19.3864 80.5924 18.7025 81.2159 17.8443L79.2095 16.3866C78.8354 16.9015 78.3354 17.3118 77.7574 17.5783C77.1794 17.8448 76.5427 17.9585 75.9081 17.9085C75.2736 17.8586 74.6625 17.6467 74.1333 17.2931C73.6041 16.9395 73.1744 16.456 72.8855 15.8888C72.5965 15.3217 72.4579 14.69 72.4829 14.054C72.5079 13.418 72.6956 12.799 73.0282 12.2563C73.3607 11.7136 73.827 11.2653 74.3823 10.9543C74.9377 10.6433 75.5635 10.48 76.2 10.48L76.2 8Z" fill="#009B7A"/>
<path d="M91.6535 12.92C91.6055 12.504 91.4775 12.144 91.2695 11.84C91.0615 11.52 90.8055 11.256 90.5015 11.048C90.1975 10.824 89.8535 10.656 89.4695 10.544C89.1015 10.432 88.7255 10.376 88.3415 10.376C87.9575 10.376 87.5815 10.44 87.2135 10.568C86.8615 10.68 86.5335 10.848 86.2295 11.072C85.9415 11.28 85.6935 11.544 85.4855 11.864C85.2935 12.184 85.1735 12.536 85.1255 12.92H91.6535ZM93.4775 18.368C92.7735 19.072 91.9895 19.592 91.1255 19.928C90.2615 20.248 89.3335 20.408 88.3415 20.408C87.4455 20.408 86.6215 20.256 85.8695 19.952C85.1335 19.632 84.4935 19.2 83.9495 18.656C83.4215 18.096 83.0055 17.44 82.7015 16.688C82.4135 15.936 82.2695 15.112 82.2695 14.216C82.2695 13.352 82.4215 12.544 82.7255 11.792C83.0295 11.024 83.4455 10.36 83.9735 9.8C84.5175 9.24 85.1575 8.8 85.8935 8.48C86.6455 8.16 87.4615 8 88.3415 8C89.6215 8 90.7575 8.328 91.7495 8.984C92.7575 9.64 93.4935 10.568 93.9575 11.768C94.1655 12.28 94.2935 12.76 94.3415 13.208C94.3895 13.656 94.4135 14.152 94.4135 14.696C94.4135 14.776 94.4055 14.864 94.3895 14.96C94.3895 15.04 94.3815 15.12 94.3655 15.2H85.1255C85.1575 15.632 85.2615 16.016 85.4375 16.352C85.6295 16.688 85.8695 16.976 86.1575 17.216C86.4455 17.456 86.7815 17.64 87.1655 17.768C87.5495 17.88 87.9415 17.936 88.3415 17.936C89.0295 17.936 89.6615 17.832 90.2375 17.624C90.8135 17.416 91.3575 17.08 91.8695 16.616L93.4775 18.368Z" fill="#584FFB"/>
<path d="M56.0508 13.44C56.0508 12.656 56.1868 11.92 56.4588 11.232C56.7308 10.544 57.1148 9.94395 57.6108 9.43195C58.1228 8.90395 58.7228 8.49595 59.4108 8.20795C60.1148 7.90395 60.8988 7.75195 61.7628 7.75195C62.6268 7.75195 63.4028 7.90395 64.0908 8.20795C64.7948 8.49595 65.3948 8.90395 65.8908 9.43195C66.4028 9.94395 66.7948 10.544 67.0668 11.232C67.3388 11.92 67.4748 12.656 67.4748 13.44V19.8H64.8348V13.896C64.8348 13.384 64.7788 12.912 64.6668 12.48C64.5548 12.048 64.3788 11.672 64.1388 11.352C63.8988 11.032 63.5788 10.784 63.1788 10.608C62.7948 10.416 62.3228 10.32 61.7628 10.32C61.2028 10.32 60.7228 10.416 60.3228 10.608C59.9388 10.784 59.6268 11.032 59.3868 11.352C59.1468 11.672 58.9708 12.048 58.8588 12.48C58.7468 12.912 58.6908 13.384 58.6908 13.896V19.8H56.0508V13.44Z" fill="#584FFB"/>
<path d="M47.1574 17.544C47.6694 17.544 48.1414 17.456 48.5734 17.28C49.0214 17.088 49.4054 16.832 49.7254 16.512C50.0454 16.192 50.2934 15.816 50.4694 15.384C50.6614 14.952 50.7574 14.48 50.7574 13.968C50.7574 13.456 50.6694 12.976 50.4934 12.528C50.3174 12.08 50.0694 11.696 49.7494 11.376C49.4294 11.04 49.0454 10.784 48.5974 10.608C48.1654 10.416 47.6854 10.32 47.1574 10.32C46.6454 10.32 46.1734 10.416 45.7414 10.608C45.3094 10.8 44.9334 11.064 44.6134 11.4C44.2934 11.72 44.0374 12.104 43.8454 12.552C43.6694 12.984 43.5814 13.456 43.5814 13.968C43.5814 14.464 43.6694 14.936 43.8454 15.384C44.0374 15.816 44.2934 16.192 44.6134 16.512C44.9334 16.832 45.3094 17.088 45.7414 17.28C46.1894 17.456 46.6614 17.544 47.1574 17.544ZM50.8054 19.8V18.648C50.2454 19.176 49.6374 19.552 48.9814 19.776C48.3254 20 47.6134 20.112 46.8454 20.112C45.9654 20.112 45.1654 19.952 44.4454 19.632C43.7254 19.312 43.1014 18.88 42.5734 18.336C42.0614 17.776 41.6614 17.128 41.3734 16.392C41.0854 15.64 40.9414 14.832 40.9414 13.968C40.9414 13.088 41.0934 12.272 41.3974 11.52C41.7174 10.768 42.1494 10.112 42.6934 9.55195C43.2534 8.99195 43.9094 8.55195 44.6614 8.23195C45.4294 7.91195 46.2534 7.75195 47.1334 7.75195C48.0134 7.75195 48.8294 7.91195 49.5814 8.23195C50.3494 8.53595 51.0134 8.95995 51.5734 9.50395C52.1494 10.048 52.5974 10.696 52.9174 11.448C53.2534 12.2 53.4214 13.008 53.4214 13.872V19.8H50.8054Z" fill="#584FFB"/>
<path d="M35.7812 3H38.4212V19.8H35.7812V3Z" fill="#584FFB"/>
<path d="M26.7668 17.544C27.2788 17.544 27.7508 17.456 28.1828 17.28C28.6308 17.088 29.0148 16.832 29.3348 16.512C29.6548 16.192 29.9028 15.816 30.0788 15.384C30.2708 14.952 30.3668 14.48 30.3668 13.968C30.3668 13.456 30.2788 12.976 30.1028 12.528C29.9268 12.08 29.6788 11.696 29.3588 11.376C29.0388 11.04 28.6548 10.784 28.2068 10.608C27.7748 10.416 27.2948 10.32 26.7668 10.32C26.2548 10.32 25.7828 10.416 25.3508 10.608C24.9188 10.8 24.5428 11.064 24.2228 11.4C23.9028 11.72 23.6468 12.104 23.4548 12.552C23.2788 12.984 23.1908 13.456 23.1908 13.968C23.1908 14.464 23.2788 14.936 23.4548 15.384C23.6468 15.816 23.9028 16.192 24.2228 16.512C24.5428 16.832 24.9188 17.088 25.3508 17.28C25.7988 17.456 26.2708 17.544 26.7668 17.544ZM30.4148 19.8V18.648C29.8548 19.176 29.2468 19.552 28.5908 19.776C27.9348 20 27.2228 20.112 26.4548 20.112C25.5748 20.112 24.7748 19.952 24.0548 19.632C23.3348 19.312 22.7108 18.88 22.1828 18.336C21.6708 17.776 21.2708 17.128 20.9828 16.392C20.6948 15.64 20.5508 14.832 20.5508 13.968C20.5508 13.088 20.7028 12.272 21.0068 11.52C21.3268 10.768 21.7588 10.112 22.3028 9.55195C22.8628 8.99195 23.5188 8.55195 24.2708 8.23195C25.0388 7.91195 25.8628 7.75195 26.7428 7.75195C27.6228 7.75195 28.4388 7.91195 29.1908 8.23195C29.9588 8.53595 30.6228 8.95995 31.1828 9.50395C31.7588 10.048 32.2068 10.696 32.5268 11.448C32.8628 12.2 33.0308 13.008 33.0308 13.872V19.8H30.4148Z" fill="#584FFB"/>
<path d="M12.72 17.16C13.136 17.16 13.528 17.088 13.896 16.944C14.264 16.784 14.584 16.576 14.856 16.32C15.128 16.064 15.344 15.768 15.504 15.432C15.664 15.08 15.744 14.704 15.744 14.304C15.744 13.92 15.664 13.56 15.504 13.224C15.344 12.872 15.128 12.568 14.856 12.312C14.584 12.056 14.264 11.856 13.896 11.712C13.544 11.552 13.16 11.472 12.744 11.472H8.76V17.16H12.72ZM8.76 8.856H11.496C12.008 8.856 12.432 8.704 12.768 8.4C13.12 8.08 13.296 7.696 13.296 7.248C13.296 6.8 13.12 6.424 12.768 6.12C12.432 5.8 12.008 5.64 11.496 5.64H8.76V8.856ZM15.384 9.48C15.848 9.688 16.264 9.96 16.632 10.296C17.016 10.632 17.344 11.016 17.616 11.448C17.904 11.864 18.12 12.32 18.264 12.816C18.424 13.312 18.504 13.832 18.504 14.376C18.504 15.128 18.36 15.832 18.072 16.488C17.8 17.144 17.416 17.72 16.92 18.216C16.424 18.712 15.848 19.104 15.192 19.392C14.536 19.664 13.832 19.8 13.08 19.8H6V3H11.856C12.432 3 12.976 3.112 13.488 3.336C14 3.544 14.448 3.84 14.832 4.224C15.216 4.608 15.512 5.056 15.72 5.568C15.944 6.08 16.056 6.624 16.056 7.2C16.056 7.616 15.992 8.024 15.864 8.424C15.752 8.808 15.592 9.16 15.384 9.48Z" fill="#584FFB"/>
</svg>
