<svg width="1275" height="251" viewBox="0 0 1275 251" fill="none" xmlns="http://www.w3.org/2000/svg">
<path d="M1011.78 77.0028C1011.78 74.2414 1009.54 71.9883 1006.78 72.1428C993.238 72.9019 980.024 76.7381 968.153 83.3864C954.825 90.8505 943.635 101.609 935.653 114.634C927.671 127.659 923.165 142.514 922.566 157.778C921.966 173.042 925.293 188.204 932.228 201.815C939.163 215.426 949.474 227.03 962.175 235.516C974.877 244.003 989.543 249.089 1004.77 250.288C1020 251.486 1035.28 248.757 1049.15 242.362C1061.51 236.665 1072.38 228.23 1080.95 217.721C1082.7 215.581 1082.19 212.444 1079.96 210.821L1059.16 195.708C1056.93 194.085 1053.82 194.599 1051.99 196.672C1047.06 202.27 1041.01 206.793 1034.2 209.93C1025.88 213.767 1016.71 215.405 1007.57 214.686C998.437 213.967 989.637 210.915 982.016 205.823C974.395 200.731 968.208 193.769 964.047 185.602C959.886 177.436 957.89 168.338 958.25 159.18C958.61 150.021 961.313 141.108 966.102 133.294C970.891 125.479 977.605 119.023 985.602 114.545C992.141 110.883 999.359 108.643 1006.78 107.948C1009.53 107.691 1011.78 105.476 1011.78 102.715V77.0028Z" fill="black"/>
<path d="M1228.71 142.849C1231.7 142.849 1234.06 140.228 1233.3 137.336C1232.33 133.618 1230.83 130.271 1228.79 127.297C1225.8 122.689 1222.11 118.887 1217.73 115.892C1213.35 112.666 1208.4 110.247 1202.87 108.634C1197.57 107.021 1192.16 106.215 1186.63 106.215C1181.1 106.215 1175.68 107.137 1170.38 108.98C1165.32 110.593 1160.59 113.012 1156.22 116.237C1152.07 119.233 1148.5 123.034 1145.5 127.642C1143.69 130.662 1142.32 133.879 1141.4 137.294C1140.62 140.198 1142.97 142.849 1145.98 142.849H1228.71ZM1257.35 217.771C1259.16 219.744 1259.1 222.804 1257.13 224.615C1247.9 233.086 1237.76 239.469 1226.72 243.764C1214.28 248.372 1200.91 250.676 1186.63 250.676C1173.73 250.676 1161.86 248.487 1151.03 244.109C1140.43 239.501 1131.22 233.281 1123.38 225.447C1115.78 217.383 1109.79 207.937 1105.41 197.108C1101.26 186.279 1099.19 174.413 1099.19 161.511C1099.19 149.069 1101.38 137.434 1105.76 126.605C1110.14 115.546 1116.13 105.985 1123.73 97.9207C1131.56 89.8567 1140.78 83.5206 1151.38 78.9126C1162.21 74.3046 1173.96 72.0007 1186.63 72.0007C1205.06 72.0007 1221.42 76.7238 1235.7 86.1702C1250.22 95.6166 1260.82 108.98 1267.5 126.26C1270.49 133.633 1272.34 140.545 1273.03 146.996C1273.72 153.447 1274.06 160.589 1274.06 168.423C1274.06 169.487 1273.97 170.649 1273.77 171.91C1273.74 172.119 1273.72 172.329 1273.72 172.542C1273.68 174.379 1272.05 175.681 1270.21 175.681H1145.7C1142.79 175.681 1140.47 178.161 1141 181.019C1141.76 185.112 1143.03 188.862 1144.81 192.269C1147.58 197.108 1151.03 201.255 1155.18 204.711C1159.33 208.167 1164.16 210.817 1169.69 212.66C1175.22 214.273 1180.87 215.079 1186.63 215.079C1196.54 215.079 1205.64 213.581 1213.93 210.586C1220.82 208.097 1227.4 204.335 1233.65 199.3C1235.8 197.576 1238.93 197.706 1240.79 199.732L1257.35 217.771Z" fill="black"/>
<path d="M721.624 150.336C721.624 139.046 723.582 128.448 727.499 118.541C731.416 108.634 736.945 99.9936 744.088 92.6208C751.46 85.0176 760.1 79.1424 770.008 74.9952C780.145 70.6176 791.435 68.4288 803.876 68.4288C816.318 68.4288 827.492 70.6176 837.4 74.9952C847.537 79.1424 856.177 85.0176 863.32 92.6208C870.692 99.9936 876.337 108.634 880.254 118.541C884.171 128.448 886.129 139.046 886.129 150.336V236.92C886.129 239.681 883.891 241.92 881.129 241.92H853.113C850.352 241.92 848.113 239.681 848.113 236.92V156.902C848.113 149.53 847.307 142.733 845.694 136.512C844.081 130.291 841.547 124.877 838.091 120.269C834.635 115.661 830.027 112.09 824.267 109.555C818.737 106.79 811.94 105.408 803.876 105.408C795.812 105.408 788.9 106.79 783.14 109.555C777.611 112.09 773.118 115.661 769.662 120.269C766.206 124.877 763.672 130.291 762.059 136.512C760.446 142.733 759.64 149.53 759.64 156.902V236.92C759.64 239.681 757.401 241.92 754.64 241.92H726.624C723.862 241.92 721.624 239.681 721.624 236.92V150.336Z" fill="black"/>
<path d="M593.541 209.434C600.914 209.434 607.711 208.166 613.931 205.632C620.383 202.867 625.912 199.181 630.52 194.573C635.128 189.965 638.699 184.55 641.234 178.33C643.999 172.109 645.381 165.312 645.381 157.939C645.381 150.566 644.114 143.654 641.579 137.203C639.045 130.752 635.474 125.222 630.866 120.614C626.258 115.776 620.728 112.09 614.277 109.555C608.056 106.79 601.144 105.408 593.541 105.408C586.168 105.408 579.371 106.79 573.151 109.555C566.93 112.32 561.515 116.122 556.907 120.96C552.299 125.568 548.613 131.098 545.848 137.549C543.314 143.77 542.047 150.566 542.047 157.939C542.047 165.082 543.314 171.878 545.848 178.33C548.613 184.55 552.299 189.965 556.907 194.573C561.515 199.181 566.93 202.867 573.151 205.632C579.602 208.166 586.399 209.434 593.541 209.434ZM651.072 241.92C648.311 241.92 646.072 239.681 646.072 236.919C646.072 232.535 640.704 230.148 637.121 232.673C631.633 236.54 625.862 239.507 619.807 241.574C610.36 244.8 600.107 246.413 589.048 246.413C576.376 246.413 564.856 244.109 554.488 239.501C544.12 234.893 535.135 228.672 527.531 220.838C520.159 212.774 514.399 203.443 510.251 192.845C506.104 182.016 504.031 170.381 504.031 157.939C504.031 145.267 506.219 133.517 510.597 122.688C515.205 111.859 521.426 102.413 529.259 94.3488C537.323 86.2848 546.77 79.9488 557.599 75.3408C568.658 70.7328 580.523 68.4288 593.195 68.4288C605.867 68.4288 617.618 70.7328 628.447 75.3408C639.506 79.7184 649.067 85.824 657.131 93.6576C665.426 101.491 671.877 110.822 676.485 121.651C681.323 132.48 683.743 144.115 683.743 156.557V236.92C683.743 239.681 681.504 241.92 678.743 241.92H651.072Z" fill="black"/>
<path d="M429.74 5C429.74 2.23857 431.979 0 434.74 0H462.756C465.518 0 467.756 2.23858 467.756 5V236.92C467.756 239.681 465.518 241.92 462.756 241.92H434.74C431.979 241.92 429.74 239.681 429.74 236.92V5Z" fill="black"/>
<path d="M299.93 209.434C307.302 209.434 314.099 208.166 320.32 205.632C326.771 202.867 332.301 199.181 336.909 194.573C341.517 189.965 345.088 184.55 347.622 178.33C350.387 172.109 351.77 165.312 351.77 157.939C351.77 150.566 350.502 143.654 347.968 137.203C345.434 130.752 341.862 125.222 337.254 120.614C332.646 115.776 327.117 112.09 320.666 109.555C314.445 106.79 307.533 105.408 299.93 105.408C292.557 105.408 285.76 106.79 279.539 109.555C273.318 112.32 267.904 116.122 263.296 120.96C258.688 125.568 255.002 131.098 252.237 137.549C249.702 143.77 248.435 150.566 248.435 157.939C248.435 165.082 249.702 171.878 252.237 178.33C255.002 184.55 258.688 189.965 263.296 194.573C267.904 199.181 273.318 202.867 279.539 205.632C285.99 208.166 292.787 209.434 299.93 209.434ZM357.461 241.92C354.699 241.92 352.461 239.681 352.461 236.919C352.461 232.535 347.093 230.148 343.509 232.673C338.022 236.54 332.251 239.507 326.195 241.574C316.749 244.8 306.496 246.413 295.437 246.413C282.765 246.413 271.245 244.109 260.877 239.501C250.509 234.893 241.523 228.672 233.92 220.838C226.547 212.774 220.787 203.443 216.64 192.845C212.493 182.016 210.419 170.381 210.419 157.939C210.419 145.267 212.608 133.517 216.986 122.688C221.594 111.859 227.814 102.413 235.648 94.3488C243.712 86.2848 253.158 79.9488 263.987 75.3408C275.046 70.7328 286.912 68.4288 299.584 68.4288C312.256 68.4288 324.006 70.7328 334.835 75.3408C345.894 79.7184 355.456 85.824 363.52 93.6576C371.814 101.491 378.266 110.822 382.874 121.651C387.712 132.48 390.131 144.115 390.131 156.557V236.92C390.131 239.681 387.893 241.92 385.131 241.92H357.461Z" fill="black"/>
<path d="M97.6401 203.904C103.63 203.904 109.275 202.867 114.574 200.794C119.874 198.49 124.482 195.494 128.398 191.808C132.315 188.122 135.426 183.859 137.73 179.021C140.034 173.952 141.186 168.538 141.186 162.778C141.186 157.248 140.034 152.064 137.73 147.226C135.426 142.157 132.315 137.779 128.398 134.093C124.482 130.406 119.874 127.526 114.574 125.453C109.506 123.149 103.976 121.997 97.9857 121.997H45.6161C42.8547 121.997 40.6161 124.235 40.6161 126.997V198.904C40.6161 201.665 42.8547 203.904 45.6161 203.904H97.6401ZM40.6161 79.3264C40.6161 82.0878 42.8547 84.3264 45.6161 84.3264H80.0145C87.3873 84.3264 93.4929 82.1376 98.3313 77.76C103.4 73.152 105.934 67.6224 105.934 61.1712C105.934 54.72 103.4 49.3056 98.3313 44.928C93.4929 40.32 87.3873 38.016 80.0145 38.016H45.6161C42.8546 38.016 40.6161 40.2546 40.6161 43.016V79.3264ZM138.918 88.2538C137.528 90.99 138.541 94.435 141.227 95.92C145.846 98.4738 150.095 101.521 153.973 105.062C159.502 109.901 164.226 115.43 168.142 121.651C172.29 127.642 175.4 134.208 177.474 141.35C179.778 148.493 180.93 155.981 180.93 163.814C180.93 174.643 178.856 184.781 174.709 194.227C170.792 203.674 165.262 211.968 158.12 219.11C150.978 226.253 142.683 231.898 133.237 236.045C123.79 239.962 113.653 241.92 102.824 241.92H5.87208C3.11065 241.92 0.87207 239.681 0.87207 236.92V5C0.87207 2.23857 3.11065 0 5.87207 0H85.1985C93.4929 0 101.326 1.6128 108.699 4.8384C116.072 7.8336 122.523 12.096 128.053 17.6256C133.582 23.1552 137.845 29.6064 140.84 36.9792C144.066 44.352 145.678 52.1856 145.678 60.48C145.678 66.4704 144.757 72.3456 142.914 78.1056C141.871 81.681 140.539 85.0637 138.918 88.2538Z" fill="black"/>
</svg>
