<svg width="24" height="24" viewBox="0 0 24 24" fill="none" xmlns="http://www.w3.org/2000/svg">
<rect width="24" height="24" fill="#584FFB"/>
<path d="M12.4661 17.7596C12.8821 17.7596 13.2741 17.6876 13.6421 17.5436C14.0101 17.3836 14.3301 17.1756 14.6021 16.9196C14.8741 16.6636 15.0901 16.3676 15.2501 16.0316C15.4101 15.6796 15.4901 15.3036 15.4901 14.9036C15.4901 14.5196 15.4101 14.1596 15.2501 13.8236C15.0901 13.4716 14.8741 13.1676 14.6021 12.9116C14.3301 12.6556 14.0101 12.4556 13.6421 12.3116C13.2901 12.1516 12.9061 12.0716 12.4901 12.0716L8.50609 12.0716L8.50609 17.7596L12.4661 17.7596ZM8.50609 9.45561L11.2421 9.45561C11.7541 9.45561 12.1781 9.30361 12.5141 8.99961C12.8661 8.67961 13.0421 8.29561 13.0421 7.84761C13.0421 7.39961 12.8661 7.02361 12.5141 6.71961C12.1781 6.39961 11.7541 6.23961 11.2421 6.23961L8.50609 6.23961L8.50609 9.45561ZM15.1301 10.0796C15.5941 10.2876 16.0101 10.5596 16.3781 10.8956C16.7621 11.2316 17.0901 11.6156 17.3621 12.0476C17.6501 12.4636 17.8661 12.9196 18.0101 13.4156C18.1701 13.9116 18.2501 14.4316 18.2501 14.9756C18.2501 15.7276 18.1061 16.4316 17.8181 17.0876C17.5461 17.7436 17.1621 18.3196 16.6661 18.8156C16.1701 19.3116 15.5941 19.7036 14.9381 19.9916C14.2821 20.2636 13.5781 20.3996 12.8261 20.3996L5.74609 20.3996L5.74609 6.59961C5.74609 4.94276 7.08924 3.59961 8.74609 3.59961L11.6021 3.59961C12.1781 3.59961 12.7221 3.71161 13.2341 3.93561C13.7461 4.14361 14.1941 4.43961 14.5781 4.82361C14.9621 5.20761 15.2581 5.65561 15.4661 6.16761C15.6901 6.67961 15.8021 7.22361 15.8021 7.79961C15.8021 8.21561 15.7381 8.62361 15.6101 9.02361C15.4981 9.40761 15.3381 9.75961 15.1301 10.0796Z" fill="white"/>
</svg>
