<svg width="100" height="24" viewBox="0 0 100 24" fill="none" xmlns="http://www.w3.org/2000/svg">
<path d="M76.2 7.99995C75.1392 7.99995 74.0961 8.27214 73.1705 8.79048C72.245 9.30882 71.4679 10.056 70.9136 10.9605C70.3594 11.865 70.0464 12.8965 70.0048 13.9565C69.9631 15.0165 70.1942 16.0695 70.6758 17.0147C71.1574 17.9599 71.8734 18.7657 72.7555 19.3551C73.6375 19.9444 74.656 20.2976 75.7136 20.3808C76.7711 20.4641 77.8323 20.2746 78.7957 19.8304C79.7591 19.3863 80.5924 18.7024 81.2159 17.8442L79.2095 16.3865C78.8354 16.9014 78.3354 17.3118 77.7574 17.5782C77.1794 17.8447 76.5427 17.9584 75.9081 17.9085C75.2736 17.8585 74.6625 17.6466 74.1333 17.293C73.6041 16.9394 73.1744 16.4559 72.8855 15.8888C72.5965 15.3217 72.4579 14.6899 72.4829 14.0539C72.5079 13.4179 72.6956 12.799 73.0282 12.2563C73.3607 11.7136 73.827 11.2653 74.3823 10.9543C74.9377 10.6433 75.5635 10.48 76.2 10.48V7.99995Z" fill="white"/>
<path d="M91.6544 12.9198C91.6064 12.5038 91.4785 12.1438 91.2705 11.8398C91.0625 11.5198 90.8064 11.2558 90.5024 11.0478C90.1984 10.8238 89.8545 10.6558 89.4705 10.5438C89.1025 10.4318 88.7265 10.3758 88.3425 10.3758C87.9585 10.3758 87.5824 10.4398 87.2144 10.5678C86.8624 10.6798 86.5345 10.8478 86.2305 11.0718C85.9425 11.2798 85.6945 11.5438 85.4865 11.8638C85.2945 12.1838 85.1744 12.5358 85.1264 12.9198H91.6544ZM93.4785 18.3678C92.7745 19.0718 91.9904 19.5918 91.1264 19.9278C90.2624 20.2478 89.3345 20.4078 88.3425 20.4078C87.4465 20.4078 86.6225 20.2558 85.8705 19.9518C85.1345 19.6318 84.4944 19.1998 83.9504 18.6558C83.4224 18.0958 83.0065 17.4398 82.7025 16.6878C82.4145 15.9358 82.2704 15.1118 82.2704 14.2158C82.2704 13.3518 82.4224 12.5438 82.7264 11.7918C83.0304 11.0238 83.4464 10.3598 83.9744 9.7998C84.5184 9.2398 85.1584 8.7998 85.8944 8.4798C86.6464 8.1598 87.4625 7.9998 88.3425 7.9998C89.6225 7.9998 90.7585 8.3278 91.7505 8.9838C92.7585 9.6398 93.4945 10.5678 93.9585 11.7678C94.1665 12.2798 94.2945 12.7598 94.3425 13.2078C94.3905 13.6558 94.4145 14.1518 94.4145 14.6958C94.4145 14.7758 94.4064 14.8638 94.3904 14.9598C94.3904 15.0398 94.3825 15.1198 94.3665 15.1998H85.1264C85.1584 15.6318 85.2625 16.0158 85.4385 16.3518C85.6305 16.6878 85.8704 16.9758 86.1584 17.2158C86.4464 17.4558 86.7825 17.6398 87.1665 17.7678C87.5505 17.8798 87.9425 17.9358 88.3425 17.9358C89.0305 17.9358 89.6624 17.8318 90.2384 17.6238C90.8144 17.4158 91.3585 17.0798 91.8705 16.6158L93.4785 18.3678Z" fill="white"/>
<path d="M56.0505 13.4398C56.0505 12.6558 56.1865 11.9198 56.4585 11.2318C56.7305 10.5438 57.1145 9.94376 57.6105 9.43176C58.1225 8.90375 58.7225 8.49575 59.4105 8.20776C60.1145 7.90375 60.8985 7.75175 61.7625 7.75175C62.6265 7.75175 63.4025 7.90375 64.0905 8.20776C64.7945 8.49575 65.3945 8.90375 65.8905 9.43176C66.4025 9.94376 66.7945 10.5438 67.0665 11.2318C67.3385 11.9198 67.4745 12.6558 67.4745 13.4398V19.7998H64.8345V13.8958C64.8345 13.3838 64.7785 12.9118 64.6665 12.4798C64.5545 12.0478 64.3785 11.6718 64.1385 11.3518C63.8985 11.0318 63.5785 10.7838 63.1785 10.6078C62.7945 10.4158 62.3225 10.3198 61.7625 10.3198C61.2025 10.3198 60.7225 10.4158 60.3225 10.6078C59.9385 10.7838 59.6265 11.0318 59.3865 11.3518C59.1465 11.6718 58.9705 12.0478 58.8585 12.4798C58.7465 12.9118 58.6905 13.3838 58.6905 13.8958V19.7998H56.0505V13.4398Z" fill="white"/>
<path d="M47.1558 17.5438C47.6678 17.5438 48.1398 17.4558 48.5718 17.2798C49.0198 17.0878 49.4039 16.8318 49.7239 16.5118C50.0439 16.1918 50.2919 15.8158 50.4678 15.3838C50.6599 14.9518 50.7559 14.4798 50.7559 13.9678C50.7559 13.4558 50.6679 12.9758 50.4919 12.5278C50.3159 12.0798 50.0678 11.6958 49.7478 11.3758C49.4278 11.0398 49.0438 10.7838 48.5958 10.6078C48.1638 10.4158 47.6838 10.3198 47.1558 10.3198C46.6438 10.3198 46.1718 10.4158 45.7398 10.6078C45.3078 10.7998 44.9319 11.0638 44.6119 11.3998C44.2919 11.7198 44.0358 12.1038 43.8438 12.5518C43.6678 12.9838 43.5798 13.4558 43.5798 13.9678C43.5798 14.4638 43.6678 14.9358 43.8438 15.3838C44.0358 15.8158 44.2919 16.1918 44.6119 16.5118C44.9319 16.8318 45.3078 17.0878 45.7398 17.2798C46.1878 17.4558 46.6598 17.5438 47.1558 17.5438ZM50.8038 19.7998V18.6478C50.2438 19.1758 49.6359 19.5518 48.9799 19.7758C48.3239 19.9998 47.6118 20.1118 46.8438 20.1118C45.9638 20.1118 45.1639 19.9518 44.4439 19.6318C43.7239 19.3118 43.0998 18.8798 42.5718 18.3358C42.0598 17.7758 41.6598 17.1278 41.3718 16.3918C41.0838 15.6398 40.9398 14.8318 40.9398 13.9678C40.9398 13.0878 41.0919 12.2718 41.3959 11.5198C41.7159 10.7678 42.1478 10.1118 42.6918 9.55175C43.2518 8.99176 43.9079 8.55175 44.6599 8.23175C45.4279 7.91175 46.2519 7.75175 47.1319 7.75175C48.0119 7.75175 48.8278 7.91175 49.5798 8.23175C50.3478 8.53575 51.0118 8.95975 51.5718 9.50375C52.1478 10.0478 52.5959 10.6958 52.9159 11.4478C53.2519 12.1998 53.4198 13.0078 53.4198 13.8718V19.7998H50.8038Z" fill="white"/>
<path d="M35.7808 2.99976H38.4208V19.7998H35.7808V2.99976Z" fill="white"/>
<path d="M26.7662 17.5438C27.2782 17.5438 27.7502 17.4558 28.1822 17.2798C28.6302 17.0878 29.0142 16.8318 29.3342 16.5118C29.6542 16.1918 29.9022 15.8158 30.0782 15.3838C30.2702 14.9518 30.3662 14.4798 30.3662 13.9678C30.3662 13.4558 30.2782 12.9758 30.1022 12.5278C29.9262 12.0798 29.6782 11.6958 29.3582 11.3758C29.0382 11.0398 28.6542 10.7838 28.2062 10.6078C27.7742 10.4158 27.2942 10.3198 26.7662 10.3198C26.2542 10.3198 25.7822 10.4158 25.3502 10.6078C24.9182 10.7998 24.5422 11.0638 24.2222 11.3998C23.9022 11.7198 23.6462 12.1038 23.4542 12.5518C23.2782 12.9838 23.1902 13.4558 23.1902 13.9678C23.1902 14.4638 23.2782 14.9358 23.4542 15.3838C23.6462 15.8158 23.9022 16.1918 24.2222 16.5118C24.5422 16.8318 24.9182 17.0878 25.3502 17.2798C25.7982 17.4558 26.2702 17.5438 26.7662 17.5438ZM30.4142 19.7998V18.6478C29.8542 19.1758 29.2462 19.5518 28.5902 19.7758C27.9342 19.9998 27.2222 20.1118 26.4542 20.1118C25.5742 20.1118 24.7742 19.9518 24.0542 19.6318C23.3342 19.3118 22.7102 18.8798 22.1822 18.3358C21.6702 17.7758 21.2702 17.1278 20.9822 16.3918C20.6942 15.6398 20.5502 14.8318 20.5502 13.9678C20.5502 13.0878 20.7022 12.2718 21.0062 11.5198C21.3262 10.7678 21.7582 10.1118 22.3022 9.55175C22.8622 8.99176 23.5182 8.55175 24.2702 8.23175C25.0382 7.91175 25.8622 7.75175 26.7422 7.75175C27.6222 7.75175 28.4382 7.91175 29.1902 8.23175C29.9582 8.53575 30.6222 8.95975 31.1822 9.50375C31.7582 10.0478 32.2062 10.6958 32.5262 11.4478C32.8622 12.1998 33.0302 13.0078 33.0302 13.8718V19.7998H30.4142Z" fill="white"/>
<path d="M12.7183 17.1598C13.1343 17.1598 13.5263 17.0878 13.8943 16.9438C14.2623 16.7838 14.5823 16.5758 14.8543 16.3198C15.1263 16.0638 15.3423 15.7678 15.5023 15.4318C15.6623 15.0798 15.7423 14.7038 15.7423 14.3038C15.7423 13.9198 15.6623 13.5598 15.5023 13.2238C15.3423 12.8718 15.1263 12.5678 14.8543 12.3118C14.5823 12.0558 14.2623 11.8558 13.8943 11.7118C13.5423 11.5518 13.1583 11.4718 12.7423 11.4718H8.75829V17.1598H12.7183ZM8.75829 8.85576H11.4943C12.0063 8.85576 12.4303 8.70376 12.7663 8.39976C13.1183 8.07976 13.2943 7.69576 13.2943 7.24776C13.2943 6.79976 13.1183 6.42376 12.7663 6.11976C12.4303 5.79976 12.0063 5.63976 11.4943 5.63976H8.75829V8.85576ZM15.3823 9.47976C15.8463 9.68776 16.2623 9.95976 16.6303 10.2958C17.0143 10.6318 17.3423 11.0158 17.6143 11.4478C17.9023 11.8638 18.1183 12.3198 18.2623 12.8158C18.4223 13.3118 18.5023 13.8318 18.5023 14.3758C18.5023 15.1278 18.3583 15.8318 18.0703 16.4878C17.7983 17.1438 17.4143 17.7198 16.9183 18.2158C16.4223 18.7118 15.8463 19.1038 15.1903 19.3918C14.5343 19.6638 13.8303 19.7998 13.0783 19.7998H5.99829V2.99976H11.8543C12.4303 2.99976 12.9743 3.11176 13.4863 3.33576C13.9983 3.54376 14.4463 3.83976 14.8303 4.22376C15.2143 4.60776 15.5103 5.05576 15.7183 5.56776C15.9423 6.07976 16.0543 6.62376 16.0543 7.19976C16.0543 7.61576 15.9903 8.02376 15.8623 8.42376C15.7503 8.80776 15.5903 9.15976 15.3823 9.47976Z" fill="white"/>
</svg>
